<svg width="36" height="36" viewBox="0 0 36 36" fill="none" xmlns="http://www.w3.org/2000/svg">
<path fill-rule="evenodd" clip-rule="evenodd" d="M24.4179 35.337V21.9752H28.9035L29.5746 16.7685H24.4162V13.4441C24.4162 11.9362 24.8354 10.908 26.9988 10.908H29.7557V6.24993C28.4206 6.10785 27.0787 6.03873 25.736 6.0429C21.7611 6.0429 19.0404 8.47028 19.0404 12.9265V16.7685H14.5411V21.9752H19.0387V35.337H2.64401C1.59163 35.337 0.73938 34.4847 0.73938 33.4324V2.7374C0.73938 1.68502 1.59163 0.832764 2.64401 0.832764H33.339C34.3914 0.832764 35.2436 1.68502 35.2436 2.7374V33.4324C35.2436 34.4847 34.3914 35.337 33.339 35.337H24.4179Z" fill="white"/>
</svg>
