<svg width="41" height="41" viewBox="0 0 41 41" fill="none" xmlns="http://www.w3.org/2000/svg">
<path d="M8.24555 17.7439C11.5256 24.19 16.81 29.4517 23.2561 32.7544L28.2672 27.7433C28.8822 27.1283 29.7933 26.9233 30.5906 27.1967C33.1417 28.0394 35.8978 28.495 38.7222 28.495C39.975 28.495 41 29.52 41 30.7728V38.7222C41 39.975 39.975 41 38.7222 41C17.3339 41 0 23.6661 0 2.27778C0 1.025 1.025 0 2.27778 0H10.25C11.5028 0 12.5278 1.025 12.5278 2.27778C12.5278 5.125 12.9833 7.85833 13.8261 10.4094C14.0767 11.2067 13.8944 12.095 13.2567 12.7328L8.24555 17.7439Z" fill="black"/>
</svg>
