<svg width="48" height="37" viewBox="0 0 48 37" fill="none" xmlns="http://www.w3.org/2000/svg">
<path d="M0.00672719 7.23686C0.0920911 5.2888 0.926063 3.44885 2.33478 2.1006C3.7435 0.752356 5.61824 -0.000136121 7.56818 1.84694e-08H39.5227C41.4727 -0.000136121 43.3474 0.752356 44.7561 2.1006C46.1648 3.44885 46.9988 5.2888 47.0842 7.23686L44.6018 8.61595L23.5455 19.9531L2.48909 8.61595L0.00672719 7.23686ZM0 11.0798V29.4318C0 31.439 0.79736 33.364 2.21667 34.7833C3.63598 36.2026 5.56098 37 7.56818 37H39.5227C41.5299 37 43.4549 36.2026 44.8742 34.7833C46.2935 33.364 47.0909 31.439 47.0909 29.4318V11.0798L46.2063 11.5726L24.3426 23.3453C24.0976 23.4772 23.8237 23.5463 23.5455 23.5463C23.2672 23.5463 22.9933 23.4772 22.7483 23.3453L0.864454 11.5608L0 11.0798Z" fill="black"/>
</svg>
