<svg width="41" height="52" viewBox="0 0 41 52" fill="none" xmlns="http://www.w3.org/2000/svg">
<path d="M20.5 0C15.065 0.00614426 9.85428 2.16043 6.01112 5.99024C2.16796 9.82004 0.00616568 15.0126 0 20.4288C0 37.9093 18.6364 51.1114 19.4307 51.6639C19.7441 51.8827 20.1174 52 20.5 52C20.8826 52 21.2559 51.8827 21.5693 51.6639C22.3636 51.1114 41 37.9093 41 20.4288C40.9938 15.0126 38.832 9.82004 34.9889 5.99024C31.1457 2.16043 25.935 0.00614426 20.5 0ZM20.5 13.0001C21.9744 13.0001 23.4156 13.4358 24.6415 14.2521C25.8674 15.0684 26.8229 16.2285 27.3871 17.586C27.9513 18.9434 28.0989 20.437 27.8113 21.878C27.5237 23.319 26.8137 24.6427 25.7712 25.6816C24.7286 26.7205 23.4003 27.428 21.9543 27.7147C20.5083 28.0013 19.0094 27.8542 17.6473 27.2919C16.2851 26.7297 15.1209 25.7775 14.3018 24.5559C13.4827 23.3343 13.0455 21.898 13.0455 20.4288C13.0455 18.4586 13.8308 16.5691 15.2288 15.1759C16.6268 13.7828 18.5229 13.0001 20.5 13.0001Z" fill="black"/>
</svg>
