<svg width="38" height="38" viewBox="0 0 38 38" fill="none" xmlns="http://www.w3.org/2000/svg">
<path d="M11.2134 0.628906H26.7162C32.622 0.628906 37.4205 5.4274 37.4205 11.3332V26.8361C37.4205 29.675 36.2928 32.3977 34.2853 34.4052C32.2779 36.4126 29.5552 37.5404 26.7162 37.5404H11.2134C5.30753 37.5404 0.509033 32.7419 0.509033 26.8361V11.3332C0.509033 8.49428 1.63681 5.77159 3.64426 3.76413C5.65171 1.75668 8.3744 0.628906 11.2134 0.628906ZM10.8443 4.32006C9.08214 4.32006 7.39219 5.02006 6.14619 6.26606C4.90018 7.51207 4.20018 9.20201 4.20018 10.9641V27.2052C4.20018 30.8779 7.17156 33.8493 10.8443 33.8493H27.0853C28.8474 33.8493 30.5374 33.1493 31.7834 31.9033C33.0294 30.6573 33.7294 28.9673 33.7294 27.2052V10.9641C33.7294 7.29143 30.758 4.32006 27.0853 4.32006H10.8443ZM28.6541 7.08842C29.2659 7.08842 29.8527 7.33148 30.2853 7.76412C30.718 8.19676 30.961 8.78354 30.961 9.39539C30.961 10.0072 30.718 10.594 30.2853 11.0267C29.8527 11.4593 29.2659 11.7024 28.6541 11.7024C28.0422 11.7024 27.4554 11.4593 27.0228 11.0267C26.5901 10.594 26.3471 10.0072 26.3471 9.39539C26.3471 8.78354 26.5901 8.19676 27.0228 7.76412C27.4554 7.33148 28.0422 7.08842 28.6541 7.08842ZM18.9648 9.85678C21.4122 9.85678 23.7593 10.829 25.4899 12.5596C27.2204 14.2901 28.1927 16.6373 28.1927 19.0847C28.1927 21.532 27.2204 23.8792 25.4899 25.6098C23.7593 27.3403 21.4122 28.3125 18.9648 28.3125C16.5174 28.3125 14.1703 27.3403 12.4397 25.6098C10.7091 23.8792 9.73691 21.532 9.73691 19.0847C9.73691 16.6373 10.7091 14.2901 12.4397 12.5596C14.1703 10.829 16.5174 9.85678 18.9648 9.85678ZM18.9648 13.5479C17.4964 13.5479 16.0881 14.1313 15.0497 15.1696C14.0114 16.2079 13.4281 17.6162 13.4281 19.0847C13.4281 20.5531 14.0114 21.9614 15.0497 22.9997C16.0881 24.0381 17.4964 24.6214 18.9648 24.6214C20.4332 24.6214 21.8415 24.0381 22.8798 22.9997C23.9182 21.9614 24.5015 20.5531 24.5015 19.0847C24.5015 17.6162 23.9182 16.2079 22.8798 15.1696C21.8415 14.1313 20.4332 13.5479 18.9648 13.5479Z" fill="white"/>
</svg>
