<svg width="275" height="44" viewBox="0 0 275 44" fill="none" xmlns="http://www.w3.org/2000/svg">
<path d="M26.1778 2.012C26.6458 2.768 27.0598 3.902 27.4198 5.414C27.8158 6.926 28.0138 8.582 28.0138 10.382C28.0138 10.994 27.9598 11.624 27.8518 12.272C27.7798 12.92 27.6358 13.514 27.4198 14.054C27.2038 14.594 26.9158 15.044 26.5558 15.404C26.1958 15.764 25.7278 15.944 25.1518 15.944C24.0358 15.944 23.0998 15.656 22.3438 15.08C21.5878 14.504 20.9218 13.784 20.3458 12.92C19.7698 12.02 19.2478 11.066 18.7798 10.058C18.3478 9.014 17.8798 8.06 17.3758 7.196C16.8718 6.296 16.2958 5.558 15.6478 4.982C15.0358 4.406 14.2798 4.118 13.3798 4.118C13.0558 4.118 12.6238 4.208 12.0838 4.388C11.5438 4.532 11.0038 4.838 10.4638 5.306C9.95981 5.738 9.50981 6.332 9.11381 7.088C8.71781 7.844 8.48381 8.816 8.41181 10.004V26.852C8.41181 28.58 8.64581 30.254 9.11381 31.874C9.61781 33.458 10.3018 34.862 11.1658 36.086C12.0298 37.31 13.0558 38.3 14.2438 39.056C15.4678 39.776 16.7998 40.136 18.2398 40.136C18.9598 40.136 19.8238 39.884 20.8318 39.38C21.8758 38.84 22.8658 38.012 23.8018 36.896C24.7378 35.744 25.5478 34.286 26.2318 32.522C26.9158 30.722 27.2578 28.562 27.2578 26.042H27.6898V41H18.2938C15.8098 41 13.5058 40.622 11.3818 39.866C9.25781 39.074 7.40381 37.976 5.81981 36.572C4.27181 35.132 3.04781 33.422 2.14781 31.442C1.28381 29.462 0.851813 27.266 0.851813 24.854V9.356C0.851813 8.564 0.941813 7.682 1.12181 6.71C1.33781 5.738 1.69781 4.82 2.20181 3.956C2.74181 3.092 3.47981 2.372 4.41581 1.796C5.35181 1.22 6.55781 0.931998 8.03381 0.931998C9.90581 0.931998 11.4538 1.31 12.6778 2.066C13.9378 2.822 15.0718 3.668 16.0798 4.604C17.1238 5.54 18.1318 6.404 19.1038 7.196C20.1118 7.952 21.2638 8.33 22.5598 8.33C23.1718 8.33 23.7298 8.132 24.2338 7.736C24.7378 7.34 25.1338 6.836 25.4218 6.224C25.7098 5.612 25.8898 4.946 25.9618 4.226C26.0698 3.47 26.0338 2.768 25.8538 2.12L26.1778 2.012ZM30.0291 34.412H36.6711V41H30.0291V34.412ZM38.7202 3.254H63.5602V8.114H54.4882L54.5422 41H47.8462V8.114H38.7202V3.254ZM78.1283 33.17H69.3263L68.0843 41H61.5503L67.4363 3.2H80.2343L86.1203 41H79.3703L78.1283 33.17ZM77.3723 28.04L73.7543 4.766L70.0823 28.04H77.3723ZM93.4319 0.877998L93.7559 0.985997C93.5759 1.67 93.5219 2.408 93.5939 3.2C93.7019 3.956 93.9179 4.658 94.2419 5.306C94.5659 5.954 94.9799 6.494 95.4839 6.926C95.9879 7.322 96.5639 7.52 97.2119 7.52C98.5799 7.52 99.8759 7.16 101.1 6.44C102.324 5.684 103.602 4.856 104.934 3.956C106.302 3.056 107.778 2.246 109.362 1.526C110.982 0.805998 112.872 0.445997 115.032 0.445997C116.58 0.445997 118.038 0.787997 119.406 1.472C120.81 2.12 121.908 3.056 122.7 4.28C123.528 5.504 123.978 6.962 124.05 8.654C124.122 10.346 123.618 12.254 122.538 14.378C122.034 15.386 121.332 16.538 120.432 17.834C119.568 19.13 118.632 20.498 117.624 21.938C116.652 23.378 115.662 24.854 114.654 26.366C113.646 27.842 112.728 29.3 111.9 30.74C111.108 32.18 110.442 33.566 109.902 34.898C109.398 36.23 109.146 37.418 109.146 38.462C109.146 39.002 109.218 39.56 109.362 40.136C109.506 40.676 109.74 41.162 110.064 41.594C110.388 42.062 110.784 42.44 111.252 42.728C111.756 43.016 112.332 43.16 112.98 43.16C114.708 43.16 116.148 42.602 117.3 41.486C118.452 40.37 119.406 38.894 120.162 37.058C120.918 35.186 121.548 33.044 122.052 30.632C122.592 28.184 123.114 25.664 123.618 23.072C124.122 20.444 124.662 17.834 125.238 15.242C125.814 12.614 126.552 10.166 127.452 7.898C127.992 6.494 128.856 5.342 130.044 4.442C131.232 3.542 132.528 2.84 133.932 2.336C135.372 1.796 136.83 1.436 138.306 1.256C139.818 1.04 141.15 0.931998 142.302 0.931998H150.24L150.132 1.418C149.376 1.418 148.656 1.418 147.972 1.418C147.288 1.418 146.622 1.454 145.974 1.526C145.326 1.598 144.678 1.724 144.03 1.904C143.382 2.084 142.698 2.372 141.978 2.768C140.646 3.488 139.404 4.658 138.252 6.278C137.136 7.898 136.074 9.77 135.066 11.894C134.058 14.018 133.104 16.286 132.204 18.698C131.304 21.11 130.422 23.45 129.558 25.718C128.73 27.986 127.902 30.074 127.074 31.982C126.282 33.89 125.472 35.42 124.644 36.572C124.176 37.22 123.582 37.958 122.862 38.786C122.142 39.614 121.278 40.388 120.27 41.108C119.298 41.864 118.2 42.494 116.976 42.998C115.752 43.538 114.402 43.808 112.926 43.808C112.026 43.808 110.946 43.61 109.686 43.214C108.462 42.854 107.274 42.278 106.122 41.486C104.97 40.694 103.98 39.686 103.152 38.462C102.36 37.238 101.964 35.762 101.964 34.034C101.964 32.342 102.378 30.83 103.206 29.498C104.034 28.13 105.096 26.87 106.392 25.718C107.688 24.566 109.11 23.504 110.658 22.532C112.242 21.524 113.79 20.534 115.302 19.562C116.814 18.59 118.182 17.582 119.406 16.538C120.666 15.494 121.62 14.36 122.268 13.136C122.664 12.344 122.916 11.552 123.024 10.76C123.168 9.932 123.186 9.194 123.078 8.546C122.97 7.826 122.502 7.214 121.674 6.71C120.846 6.206 119.874 5.774 118.758 5.414C117.642 5.054 116.472 4.766 115.248 4.55C114.024 4.334 112.926 4.172 111.954 4.064C110.478 6.98 109.056 9.986 107.688 13.082C106.356 16.142 105.042 19.13 103.746 22.046C102.45 24.926 101.154 27.662 99.8579 30.254C98.5979 32.81 97.2839 35.06 95.9159 37.004C94.5839 38.912 93.1799 40.424 91.7039 41.54C90.2639 42.656 88.7339 43.214 87.1139 43.214L89.1659 29.552C90.5339 29.624 91.9199 29.264 93.3239 28.472C94.7279 27.644 96.1139 26.546 97.4819 25.178C98.8499 23.81 100.182 22.226 101.478 20.426C102.774 18.626 103.998 16.772 105.15 14.864C106.338 12.956 107.418 11.066 108.39 9.194C109.362 7.286 110.226 5.558 110.982 4.01C110.622 3.974 110.316 3.956 110.064 3.956C109.812 3.92 109.614 3.902 109.47 3.902C108.102 3.902 106.878 4.19 105.798 4.766C104.718 5.342 103.728 6.062 102.828 6.926C101.964 7.754 101.172 8.672 100.452 9.68C99.7319 10.688 99.0479 11.624 98.3999 12.488C97.7519 13.316 97.1039 14.018 96.4559 14.594C95.8439 15.17 95.1959 15.458 94.5119 15.458C93.8999 15.458 93.3959 15.278 92.9999 14.918C92.6039 14.522 92.2979 14.054 92.0819 13.514C91.8659 12.938 91.7039 12.308 91.5959 11.624C91.5239 10.94 91.4879 10.292 91.4879 9.68C91.4879 7.772 91.6859 6.026 92.0819 4.442C92.4779 2.822 92.9279 1.634 93.4319 0.877998ZM145.009 22.316C145.009 24.296 145.315 26.114 145.927 27.77C146.539 29.426 147.439 30.848 148.627 32.036C149.815 33.188 151.273 34.088 153.001 34.736C154.729 35.384 156.691 35.708 158.887 35.708C159.787 35.708 160.741 35.618 161.749 35.438C162.793 35.222 163.765 34.754 164.665 34.034C165.601 33.314 166.393 32.27 167.041 30.902C167.689 29.498 168.085 27.59 168.229 25.178V24.53H150.409V19.67H174.007V41H168.229V33.17C167.617 36.122 166.303 38.246 164.287 39.542C162.271 40.802 159.859 41.432 157.051 41.432C154.495 41.432 152.137 40.982 149.977 40.082C147.817 39.146 145.963 37.85 144.415 36.194C142.867 34.502 141.661 32.486 140.797 30.146C139.933 27.77 139.501 25.16 139.501 22.316C139.501 19.436 139.933 16.826 140.797 14.486C141.697 12.146 142.939 10.148 144.523 8.492C146.143 6.8 148.069 5.504 150.301 4.604C152.569 3.668 155.089 3.2 157.861 3.2H173.845L173.791 9.032L157.861 8.924C155.917 8.924 154.153 9.248 152.569 9.896C150.985 10.544 149.635 11.462 148.519 12.65C147.403 13.802 146.539 15.206 145.927 16.862C145.315 18.482 145.009 20.3 145.009 22.316ZM207.247 8.924C207.139 9.68 206.923 10.652 206.599 11.84C206.311 13.028 205.951 14.342 205.519 15.782C205.123 17.222 204.691 18.716 204.223 20.264C203.755 21.812 203.287 23.324 202.819 24.8C202.387 26.276 201.973 27.662 201.577 28.958C201.217 30.218 200.929 31.28 200.713 32.144C199.993 35.06 199.687 37.256 199.795 38.732C199.903 40.208 200.371 41.054 201.199 41.27C201.847 41.45 202.423 41.324 202.927 40.892C203.431 40.424 203.845 39.794 204.169 39.002C204.529 38.21 204.799 37.346 204.979 36.41C205.159 35.438 205.249 34.52 205.249 33.656C205.249 32.792 205.123 32.072 204.871 31.496C204.655 30.884 204.313 30.56 203.845 30.524C203.413 30.452 203.035 30.488 202.711 30.632C202.387 30.776 201.973 31.154 201.469 31.766L201.253 31.55C201.793 30.794 202.405 30.056 203.089 29.336C203.809 28.616 204.547 27.968 205.303 27.392C206.059 26.816 206.797 26.348 207.517 25.988C208.273 25.628 208.939 25.448 209.515 25.448C209.911 25.448 210.253 25.538 210.541 25.718C211.405 26.222 211.927 26.978 212.107 27.986C212.287 28.994 212.215 30.11 211.891 31.334C211.567 32.522 211.027 33.764 210.271 35.06C209.551 36.32 208.669 37.472 207.625 38.516C206.617 39.56 205.501 40.406 204.277 41.054C203.089 41.738 201.865 42.08 200.605 42.08C199.849 42.08 199.057 41.936 198.229 41.648C197.437 41.396 196.663 41.036 195.907 40.568C195.187 40.1 194.521 39.56 193.909 38.948C193.297 38.3 192.811 37.634 192.451 36.95L200.335 14.648H199.741C198.337 18.896 196.915 22.748 195.475 26.204C194.035 29.66 192.631 32.612 191.263 35.06C189.895 37.508 188.581 39.398 187.321 40.73C186.061 42.062 184.909 42.728 183.865 42.728C182.281 42.728 180.913 42.458 179.761 41.918C178.645 41.378 177.709 40.694 176.953 39.866C176.233 39.038 175.693 38.102 175.333 37.058C174.973 35.978 174.793 34.934 174.793 33.926C174.793 31.802 175.477 29.75 176.845 27.77C178.213 25.754 179.923 23.81 181.975 21.938C184.027 20.03 186.241 18.194 188.617 16.43C190.993 14.63 193.207 12.92 195.259 11.3C197.347 9.68 199.075 8.132 200.443 6.656C201.847 5.18 202.567 3.776 202.603 2.444C202.603 1.94 202.513 1.616 202.333 1.472C202.153 1.292 201.901 1.202 201.577 1.202C200.893 1.202 200.065 1.562 199.093 2.282C198.121 3.002 197.059 3.92 195.907 5.036C194.791 6.116 193.621 7.304 192.397 8.6C191.209 9.86 190.003 11.03 188.779 12.11C187.591 13.19 186.439 14.108 185.323 14.864C184.207 15.584 183.199 15.944 182.299 15.944C181.615 15.944 181.021 15.764 180.517 15.404C180.013 15.044 179.599 14.576 179.275 14C178.951 13.424 178.699 12.812 178.519 12.164C178.375 11.48 178.303 10.832 178.303 10.22C178.303 8.312 178.483 6.566 178.843 4.982C179.239 3.398 179.671 2.228 180.139 1.472L180.247 1.634C179.815 2.606 179.635 3.452 179.707 4.172C179.779 4.892 179.995 5.486 180.355 5.954C180.751 6.422 181.255 6.764 181.867 6.98C182.479 7.196 183.109 7.304 183.757 7.304C185.665 7.304 187.429 6.962 189.049 6.278C190.705 5.558 192.271 4.766 193.747 3.902C195.259 3.038 196.717 2.264 198.121 1.58C199.561 0.859998 201.001 0.499997 202.441 0.499997C203.125 0.499997 203.791 0.661997 204.439 0.985997C205.123 1.274 205.699 1.76 206.167 2.444C206.671 3.092 207.031 3.956 207.247 5.036C207.463 6.116 207.463 7.412 207.247 8.924ZM201.307 7.196L201.037 6.926C198.805 9.266 196.627 11.336 194.503 13.136C192.379 14.9 190.471 16.628 188.779 18.32C187.123 20.012 185.755 21.776 184.675 23.612C183.631 25.448 183.055 27.59 182.947 30.038C182.875 31.262 183.109 32.252 183.649 33.008C184.225 33.728 185.089 34.088 186.241 34.088C187.465 34.088 188.599 33.692 189.643 32.9C190.687 32.108 191.677 31.046 192.613 29.714C193.549 28.346 194.413 26.78 195.205 25.016C195.997 23.216 196.753 21.326 197.473 19.346C198.193 17.33 198.859 15.296 199.471 13.244C200.119 11.156 200.731 9.14 201.307 7.196ZM241.552 39.38V3.2H248.518L248.086 41H235.666L221.356 5.684L220.978 41H214.444V3.2H226.918L241.552 39.38ZM266.865 33.17H258.063L256.821 41H250.287L256.173 3.2H268.971L274.857 41H268.107L266.865 33.17ZM266.109 28.04L262.491 4.766L258.819 28.04H266.109Z" fill="#FF0606"/>
</svg>
