<svg width="41" height="41" viewBox="0 0 41 41" fill="none" xmlns="http://www.w3.org/2000/svg">
<path d="M31.9206 17.8781C25.5012 14.0666 14.7688 13.6654 8.65029 15.5711C7.64726 15.872 6.64423 15.2702 6.34332 14.3675C6.04241 13.3645 6.64423 12.3614 7.54696 12.0605C14.6685 9.95417 26.4039 10.3554 33.8263 14.7687C34.7291 15.2702 35.03 16.4739 34.5285 17.3766C34.027 18.0787 32.8233 18.3796 31.9206 17.8781ZM31.72 23.4951C31.2185 24.1972 30.3157 24.4981 29.6136 23.9966C24.1973 20.6866 15.9724 19.6836 9.65332 21.6896C8.8509 21.8902 7.94817 21.489 7.74756 20.6866C7.54696 19.8842 7.94817 18.9814 8.75059 18.7808C16.0727 16.5742 25.1 17.6775 31.3188 21.489C31.9206 21.7899 32.2215 22.793 31.72 23.4951ZM29.3127 29.0117C28.9115 29.6136 28.2094 29.8142 27.6076 29.413C22.8933 26.5042 16.9754 25.9023 9.95423 27.5072C9.25211 27.7078 8.65029 27.2063 8.44968 26.6045C8.24908 25.9023 8.75059 25.3005 9.35241 25.0999C16.9754 23.3948 23.5954 24.0969 28.8112 27.3066C29.5133 27.6075 29.6136 28.4099 29.3127 29.0117ZM20.0848 0.0241699C17.4504 0.0241699 14.8418 0.543053 12.408 1.55119C9.97411 2.55933 7.76264 4.03699 5.89985 5.89978C2.13775 9.66188 0.024231 14.7644 0.024231 20.0848C0.024231 25.4052 2.13775 30.5077 5.89985 34.2698C7.76264 36.1326 9.97411 37.6102 12.408 38.6184C14.8418 39.6265 17.4504 40.1454 20.0848 40.1454C25.4052 40.1454 30.5077 38.0319 34.2698 34.2698C38.0319 30.5077 40.1454 25.4052 40.1454 20.0848C40.1454 17.4504 39.6266 14.8418 38.6184 12.4079C37.6103 9.97405 36.1326 7.76258 34.2698 5.89978C32.407 4.03699 30.1956 2.55933 27.7617 1.55119C25.3278 0.543053 22.7192 0.0241699 20.0848 0.0241699Z" fill="white"/>
</svg>
