<svg width="36" height="30" viewBox="0 0 36 30" fill="none" xmlns="http://www.w3.org/2000/svg">
<path d="M35.4357 4.2495C34.1521 4.83294 32.7685 5.21635 31.3349 5.39972C32.8019 4.51621 33.9354 3.11595 34.4689 1.43229C33.0853 2.26579 31.5516 2.84923 29.9347 3.18263C28.6177 1.74902 26.7674 0.915527 24.667 0.915527C20.7496 0.915527 17.549 4.11614 17.549 8.06689C17.549 8.63367 17.6156 9.18377 17.7323 9.70054C11.7979 9.40048 6.51351 6.54994 2.99618 2.23245C2.37939 3.28265 2.02932 4.51621 2.02932 5.81646C2.02932 8.30027 3.27956 10.5007 5.21327 11.7509C4.02971 11.7509 2.9295 11.4175 1.96265 10.9174V10.9674C1.96265 14.4348 4.42978 17.3353 7.69707 17.9855C6.64808 18.2725 5.54682 18.3125 4.47979 18.1021C4.93256 19.5232 5.81928 20.7667 7.0153 21.6577C8.21133 22.5487 9.65653 23.0426 11.1477 23.0698C8.61997 25.0709 5.48665 26.1525 2.2627 26.137C1.69593 26.137 1.12915 26.1037 0.562378 26.037C3.72965 28.0707 7.49703 29.2543 11.5311 29.2543C24.667 29.2543 31.885 18.3522 31.885 8.90039C31.885 8.58366 31.885 8.2836 31.8684 7.96687C33.2686 6.96668 34.4688 5.69977 35.4357 4.2495Z" fill="white"/>
</svg>
