<svg width="43" height="30" viewBox="0 0 43 30" fill="none" xmlns="http://www.w3.org/2000/svg">
<path d="M17.1547 21.2746L27.9826 15.0845L17.1547 8.89437V21.2746ZM41.2724 5.1184C41.5436 6.08818 41.7314 7.38811 41.8565 9.03881C42.0026 10.6895 42.0652 12.1132 42.0652 13.3513L42.1903 15.0845C42.1903 19.6033 41.8565 22.9253 41.2724 25.0506C40.7508 26.9077 39.5407 28.1044 37.6631 28.6203C36.6825 28.8885 34.8883 29.0742 32.1344 29.198C29.4222 29.3424 26.9395 29.4043 24.6445 29.4043L21.3273 29.5281C12.5857 29.5281 7.14046 29.198 4.99157 28.6203C3.1139 28.1044 1.90384 26.9077 1.38227 25.0506C1.11105 24.0808 0.923281 22.7809 0.798103 21.1302C0.652062 19.4795 0.589472 18.0558 0.589472 16.8177L0.464294 15.0845C0.464294 10.5657 0.798103 7.24367 1.38227 5.1184C1.90384 3.26136 3.1139 2.0646 4.99157 1.54875C5.97213 1.28052 7.76635 1.09481 10.5203 0.971009C13.2325 0.826573 15.7152 0.764672 18.0101 0.764672L21.3273 0.640869C30.0689 0.640869 35.5142 0.971009 37.6631 1.54875C39.5407 2.0646 40.7508 3.26136 41.2724 5.1184Z" fill="white"/>
</svg>
